<svg width="212" height="44" viewBox="0 0 212 44" fill="none" xmlns="http://www.w3.org/2000/svg">
<g clip-path="url(#clip0_60_104)">
<path d="M0 18.0489V25.2122C0 25.6629 0.354171 26.0171 0.804863 26.0171H7.6623C8.20968 26.0171 8.64413 26.4517 8.64413 26.9989V33.8563C8.64413 34.3069 8.99832 34.6613 9.449 34.6613H16.3064C16.8538 34.6613 17.2883 35.0959 17.2883 35.6431L17.3205 40.9229C17.3205 41.3735 17.578 41.7761 17.9966 41.9533C20.6849 43.08 23.518 43.6595 26.4638 43.6595C38.5045 43.6595 48.2917 33.8723 48.2917 21.8477C48.292 9.80698 38.5048 0.0202637 26.4642 0.0202637C23.5184 0.0202637 20.6692 0.599683 17.997 1.71047C17.5946 1.88748 17.3209 2.28989 17.3209 2.74078L17.2887 7.68262C17.2887 8.23001 16.854 8.66449 16.3068 8.66449H9.44939C8.99871 8.66449 8.64455 9.01864 8.64455 9.46933V16.3107C8.64455 16.8581 8.20986 17.2925 7.66269 17.2925H0.805264C0.354582 17.2765 0.00040243 17.6307 0.00040243 18.0491L0 18.0489ZM26.0292 24.9386V18.387C26.0292 17.8396 26.4639 17.4051 27.0111 17.4051H33.5627C34.1099 17.4051 34.5446 17.8398 34.5446 18.387V24.9386C34.5446 25.4859 34.1099 25.9204 33.5627 25.9204H27.0272C26.4798 25.9206 26.0452 25.4697 26.0291 24.9386H26.0292ZM17.4011 16.3104V9.77495C17.4011 9.22757 17.8358 8.79309 18.383 8.79309H24.9346C25.4819 8.79309 25.9164 9.22775 25.9164 9.77495V16.3104C25.9164 16.8578 25.4817 17.2923 24.9346 17.2923H18.383C17.852 17.2764 17.4173 16.8418 17.4011 16.3105V16.3104ZM25.9166 27.0312V33.5829C25.9166 34.1301 25.4819 34.5647 24.9347 34.5647H18.3831C17.8357 34.5647 17.4013 34.1301 17.4013 33.5829V27.0312C17.4013 26.4838 17.8359 26.0494 18.3831 26.0494H24.9347C25.4659 26.0494 25.9166 26.484 25.9166 27.0312ZM17.2723 18.4031V24.9546C17.2723 25.502 16.8377 25.9365 16.2905 25.9365H9.7389C9.19151 25.9365 8.75707 25.5018 8.75707 24.9546V18.4031C8.75707 17.8557 9.19172 17.4212 9.7389 17.4212H16.2905C16.8377 17.4211 17.2723 17.8557 17.2723 18.4031Z" fill="black"/>
</g>
<path d="M61.6764 34.0989V8.96104H74.3694C75.8798 8.96104 77.1935 9.23001 78.3108 9.76793C79.428 10.2852 80.297 11.03 80.9177 12.0024C81.559 12.9541 81.8797 14.0714 81.8797 15.3541C81.8797 16.6576 81.5177 17.7645 80.7935 18.6748C80.0694 19.5644 79.1384 20.1955 78.0004 20.5679V20.692C78.9315 20.8989 79.7797 21.2817 80.5453 21.8403C81.3315 22.3989 81.9522 23.1024 82.4073 23.9506C82.8832 24.7989 83.1211 25.8024 83.1211 26.961C83.1211 28.3886 82.7694 29.6403 82.0659 30.7161C81.3832 31.7713 80.4211 32.5989 79.1797 33.1989C77.9591 33.7989 76.5418 34.0989 74.928 34.0989H61.6764ZM66.4246 30.0023H74.0591C75.4453 30.0023 76.5108 29.7023 77.2556 29.1023C78.0004 28.4817 78.3729 27.592 78.3729 26.4334C78.3729 25.2955 78.0004 24.4368 77.2556 23.8575C76.5108 23.2575 75.4556 22.9575 74.0901 22.9575H66.4246V30.0023ZM66.4246 19.1713H73.7177C74.8142 19.1713 75.6522 18.9127 76.2315 18.3955C76.8315 17.8576 77.1315 17.1024 77.1315 16.13C77.1315 15.1162 76.8315 14.3507 76.2315 13.8334C75.6522 13.3162 74.8142 13.0576 73.7177 13.0576H66.4246V19.1713ZM92.4775 34.4403C90.3051 34.4403 88.5982 33.9127 87.3568 32.8575C86.1361 31.8023 85.5258 30.4058 85.5258 28.6679C85.5258 26.8472 86.1465 25.4403 87.3879 24.4472C88.6499 23.4541 90.4603 22.9575 92.8189 22.9575H98.4982V22.2127C98.4982 19.9369 97.174 18.7989 94.5258 18.7989C92.2913 18.7989 90.9361 19.6058 90.4603 21.2196H85.8361C86.2085 19.2334 87.1396 17.7231 88.6292 16.6886C90.1396 15.6334 92.1051 15.1058 94.5258 15.1058C97.2568 15.1058 99.3361 15.7265 100.764 16.9679C102.191 18.1886 102.905 19.9782 102.905 22.3369V29.4748H105.108V34.0989H100.36V31.1196H99.0568C98.4154 32.1747 97.5464 32.992 96.4499 33.5713C95.374 34.1506 94.0499 34.4403 92.4775 34.4403ZM93.1602 30.8713C94.174 30.8713 95.0844 30.6851 95.8913 30.3127C96.6982 29.9196 97.3292 29.4023 97.7844 28.761C98.2602 28.0989 98.4982 27.3644 98.4982 26.5575V26.123H93.0671C90.9775 26.123 89.9327 26.8989 89.9327 28.4506C89.9327 29.2161 90.212 29.8161 90.7706 30.2506C91.3499 30.6644 92.1465 30.8713 93.1602 30.8713ZM113.853 34.0989C112.633 34.0989 111.681 33.7885 110.998 33.1678C110.336 32.5472 110.005 31.6058 110.005 30.3437V19.0782H106.715V15.4783H110.036V9.89207H114.567V15.4783H119.067V19.0782H114.629V30.4679H119.502V34.0989H113.853ZM131.031 34.4713C129.107 34.4713 127.421 34.0782 125.973 33.292C124.525 32.4851 123.397 31.3575 122.59 29.9092C121.783 28.461 121.38 26.7541 121.38 24.7886C121.38 22.8231 121.773 21.1162 122.559 19.6679C123.366 18.2196 124.493 17.1024 125.942 16.3162C127.39 15.5093 129.087 15.1058 131.031 15.1058C133.431 15.1058 135.418 15.7162 136.99 16.9369C138.562 18.1369 139.555 19.8127 139.969 21.9644H135.345C135.035 21.0334 134.518 20.33 133.793 19.8541C133.069 19.3782 132.149 19.1403 131.031 19.1403C129.5 19.1403 128.28 19.6369 127.369 20.63C126.459 21.6024 126.004 22.9886 126.004 24.7886C126.004 26.5886 126.459 27.9851 127.369 28.9782C128.28 29.9506 129.5 30.4368 131.031 30.4368C133.431 30.4368 134.9 29.4023 135.438 27.3334H140.093C139.7 29.5885 138.718 31.3472 137.145 32.6092C135.573 33.8506 133.535 34.4713 131.031 34.4713ZM142.588 34.0989V8.03001H147.212V18.2403H147.337C147.937 17.2265 148.754 16.461 149.788 15.9438C150.823 15.4058 152.043 15.1369 153.45 15.1369C155.788 15.1369 157.64 15.8403 159.005 17.2472C160.392 18.6541 161.085 20.5265 161.085 22.8644V34.0989H156.461V23.7334C156.461 22.2644 156.068 21.1472 155.281 20.3817C154.495 19.6162 153.347 19.2334 151.837 19.2334C150.326 19.2334 149.178 19.6162 148.392 20.3817C147.606 21.1472 147.212 22.2644 147.212 23.7334V34.0989H142.588ZM165.908 34.0989V8.96104H170.656V19.761H170.781L182.139 8.96104H187.974L176.832 19.4507L188.253 34.0989H182.574L173.45 22.3369L170.656 24.5713V34.0989H165.908ZM190.822 34.0989V15.4783H195.447V34.0989H190.822ZM193.119 13.43C192.395 13.43 191.774 13.1817 191.257 12.6852C190.76 12.1679 190.512 11.5472 190.512 10.8231C190.512 10.099 190.76 9.48862 191.257 8.99208C191.774 8.47484 192.395 8.21622 193.119 8.21622C193.843 8.21622 194.454 8.47484 194.95 8.99208C195.467 9.48862 195.726 10.099 195.726 10.8231C195.726 11.5472 195.467 12.1679 194.95 12.6852C194.454 13.1817 193.843 13.43 193.119 13.43ZM205.429 34.0989C204.208 34.0989 203.257 33.7885 202.574 33.1678C201.912 32.5472 201.581 31.6058 201.581 30.3437V19.0782H198.291V15.4783H201.612V9.89207H206.143V15.4783H210.643V19.0782H206.205V30.4679H211.077V34.0989H205.429Z" fill="black"/>
<defs>
<clipPath id="clip0_60_104">
<rect width="48.2917" height="43.6738" fill="white"/>
</clipPath>
</defs>
</svg>
